<?xml version="1.0" encoding="UTF-8" standalone="no"?><!-- Generator: Gravit.io --><svg xmlns="http://www.w3.org/2000/svg" xmlns:xlink="http://www.w3.org/1999/xlink" style="isolation:isolate" viewBox="0 0 32 32" width="32pt" height="32pt"><defs><clipPath id="_clipPath_aBYSLUed5a2a2xATvYNoGIM8mOJjSMnt"><rect width="32" height="32"/></clipPath></defs><g clip-path="url(#_clipPath_aBYSLUed5a2a2xATvYNoGIM8mOJjSMnt)"><g><path d=" M 16 28 C 22.568 28 28 22.583 28 16 C 28 9.432 22.568 4 15.985 4 C 9.417 4 4 9.432 4 16 C 4 22.583 9.432 28 16 28 Z  M 10.932 21.345 C 9.621 21.345 8.922 20.646 8.922 19.35 L 8.922 13.277 C 8.922 11.966 9.621 11.282 10.932 11.282 L 12.214 11.282 C 12.65 11.282 12.811 11.194 13.087 10.917 L 13.553 10.451 C 13.845 10.131 14.18 9.985 14.762 9.985 L 17.223 9.985 C 17.806 9.985 18.141 10.131 18.432 10.451 L 18.883 10.917 C 19.16 11.209 19.32 11.282 19.772 11.282 L 21.053 11.282 C 22.364 11.282 23.063 11.966 23.063 13.277 L 23.063 19.35 C 23.063 20.646 22.364 21.345 21.053 21.345 L 10.932 21.345 Z  M 16 19.67 C 17.893 19.67 19.393 18.184 19.393 16.262 C 19.393 14.384 17.893 12.869 16 12.869 C 14.121 12.869 12.607 14.384 12.607 16.262 C 12.607 18.155 14.121 19.67 16 19.67 Z  M 20.646 14.806 C 21.126 14.806 21.505 14.427 21.505 13.947 C 21.505 13.466 21.126 13.087 20.646 13.087 C 20.165 13.087 19.786 13.466 19.786 13.947 C 19.786 14.427 20.165 14.806 20.646 14.806 Z  M 15.985 18.301 C 14.879 18.301 13.961 17.398 13.961 16.262 C 13.961 15.141 14.879 14.238 15.985 14.238 C 17.107 14.238 18.024 15.141 18.024 16.262 C 18.024 17.398 17.107 18.301 15.985 18.301 Z " fill="rgb(0,0,0)"/></g></g></svg>