<?xml version="1.0" encoding="UTF-8" standalone="no"?><!-- Generator: Gravit.io --><svg xmlns="http://www.w3.org/2000/svg" xmlns:xlink="http://www.w3.org/1999/xlink" style="isolation:isolate" viewBox="0 0 32 32" width="32pt" height="32pt"><defs><clipPath id="_clipPath_MuYh2RnIGBDw3svttrkgBPPg3cUFjGvW"><rect width="32" height="32"/></clipPath></defs><g clip-path="url(#_clipPath_MuYh2RnIGBDw3svttrkgBPPg3cUFjGvW)"><g><path d=" M 16 28 C 22.568 28 28 22.583 28 16 C 28 9.432 22.568 4 15.985 4 C 9.417 4 4 9.432 4 16 C 4 22.583 9.432 28 16 28 Z  M 15.985 21.155 C 11.136 21.155 7.816 17.223 7.816 16.015 C 7.816 14.806 11.136 10.874 15.985 10.874 C 20.908 10.874 24.155 14.806 24.155 16.015 C 24.155 17.223 20.908 21.155 15.985 21.155 Z  M 15.985 19.306 C 17.82 19.306 19.306 17.806 19.306 16.015 C 19.306 14.18 17.82 12.709 15.985 12.709 C 14.165 12.709 12.68 14.18 12.68 16.015 C 12.68 17.806 14.165 19.306 15.985 19.306 Z  M 16 17.5 C 15.184 17.5 14.515 16.816 14.515 16.015 C 14.515 15.214 15.184 14.529 16 14.529 C 16.801 14.529 17.471 15.214 17.471 16.015 C 17.471 16.816 16.801 17.5 16 17.5 Z " fill="rgb(0,0,0)"/></g></g></svg>