<?xml version="1.0" encoding="UTF-8" standalone="no"?><!-- Generator: Gravit.io --><svg xmlns="http://www.w3.org/2000/svg" xmlns:xlink="http://www.w3.org/1999/xlink" style="isolation:isolate" viewBox="0 0 32 32" width="32pt" height="32pt"><defs><clipPath id="_clipPath_1aL9ZEdhEmfsIi84jATHiErHOymAdSBu"><rect width="32" height="32"/></clipPath></defs><g clip-path="url(#_clipPath_1aL9ZEdhEmfsIi84jATHiErHOymAdSBu)"><clipPath id="_clipPath_BFxoQPhC2ZYdiN7evHpwATMtEyjREkRJ"><rect x="0" y="0" width="32" height="32" transform="matrix(1,0,0,1,0,0)" fill="rgb(255,255,255)"/></clipPath><g clip-path="url(#_clipPath_BFxoQPhC2ZYdiN7evHpwATMtEyjREkRJ)"><g><g filter="url(#SfsyfKPHOQKMnHOtmUAtYMlmq6ziZOAh)"><path d=" M 28 16 C 28 22.63 22.63 28 16 28 C 9.38 28 4 22.63 4 16 C 4 9.38 9.38 4 16 4 C 22.63 4 28 9.38 28 16 Z " fill="rgb(255,255,255)"/></g><defs><filter id="SfsyfKPHOQKMnHOtmUAtYMlmq6ziZOAh" x="-200%" y="-200%" width="400%" height="400%" filterUnits="objectBoundingBox" color-interpolation-filters="sRGB"><feGaussianBlur xmlns="http://www.w3.org/2000/svg" in="SourceGraphic" stdDeviation="1.7174436251356113"/><feOffset xmlns="http://www.w3.org/2000/svg" dx="1" dy="1" result="pf_100_offsetBlur"/><feFlood xmlns="http://www.w3.org/2000/svg" flood-color="#000000" flood-opacity="0.65"/><feComposite xmlns="http://www.w3.org/2000/svg" in2="pf_100_offsetBlur" operator="in" result="pf_100_dropShadow"/><feBlend xmlns="http://www.w3.org/2000/svg" in="SourceGraphic" in2="pf_100_dropShadow" mode="normal"/></filter></defs><g><path d=" M 23 16 C 23 17.38 21.88 18.5 20.5 18.5 C 19.13 18.5 18 17.38 18 16 C 18 14.62 19.13 13.5 20.5 13.5 C 21.88 13.5 23 14.62 23 16 Z " fill="rgb(255,0,255)"/></g><g><path d=" M 14 16 C 14 17.38 12.88 18.5 11.5 18.5 C 10.13 18.5 9 17.38 9 16 C 9 14.62 10.13 13.5 11.5 13.5 C 12.88 13.5 14 14.62 14 16 Z " fill="rgb(0,170,221)"/></g></g></g></g></svg>