<?xml version="1.0" encoding="UTF-8" standalone="no"?><!-- Generator: Gravit.io --><svg xmlns="http://www.w3.org/2000/svg" xmlns:xlink="http://www.w3.org/1999/xlink" style="isolation:isolate" viewBox="0 0 40 40" width="40pt" height="40pt"><defs><clipPath id="_clipPath_i3XCzwlTAogpnMXI3EgxyLcmE0z0xpnP"><rect width="40" height="40"/></clipPath></defs><g clip-path="url(#_clipPath_i3XCzwlTAogpnMXI3EgxyLcmE0z0xpnP)"><defs><filter id="1poCIeoCXhAtYQKdCBYHgPciXjeqVpwO" x="-200%" y="-200%" width="400%" height="400%" filterUnits="objectBoundingBox" color-interpolation-filters="sRGB"><feGaussianBlur xmlns="http://www.w3.org/2000/svg" in="SourceGraphic" stdDeviation="1.7174436251356113"/><feOffset xmlns="http://www.w3.org/2000/svg" dx="1" dy="1" result="pf_100_offsetBlur"/><feFlood xmlns="http://www.w3.org/2000/svg" flood-color="#000000" flood-opacity="0.65"/><feComposite xmlns="http://www.w3.org/2000/svg" in2="pf_100_offsetBlur" operator="in" result="pf_100_dropShadow"/><feBlend xmlns="http://www.w3.org/2000/svg" in="SourceGraphic" in2="pf_100_dropShadow" mode="normal"/></filter></defs><g filter="url(#1poCIeoCXhAtYQKdCBYHgPciXjeqVpwO)"><circle vector-effect="non-scaling-stroke" cx="20" cy="20" r="16" fill="rgb(0,150,136)"/></g><g><path d=" M 11.334 23.652 C 11.619 25.246 12.633 25.946 14.254 25.66 L 14.356 25.642 L 14.356 25.955 C 14.356 27.586 15.222 28.452 16.871 28.452 L 27.485 28.452 C 29.125 28.452 30 27.586 30 25.955 L 30 18.548 C 30 16.917 29.125 16.051 27.485 16.051 L 25.891 16.051 L 25.458 13.628 C 25.172 12.034 24.168 11.324 22.546 11.61 L 12.108 13.453 C 10.477 13.738 9.777 14.742 10.062 16.346 L 11.334 23.652 Z  M 13.038 23.163 L 11.813 16.217 C 11.702 15.608 11.969 15.258 12.55 15.157 L 22.712 13.36 C 23.284 13.259 23.652 13.499 23.763 14.116 L 24.103 16.051 L 16.871 16.051 C 15.222 16.051 14.356 16.917 14.356 18.548 L 14.356 23.864 L 14.098 23.91 C 13.517 24.011 13.149 23.772 13.038 23.163 Z  M 16.106 18.732 C 16.106 18.105 16.429 17.81 17.018 17.81 L 27.337 17.81 C 27.918 17.81 28.24 18.105 28.24 18.732 L 28.24 24.288 L 25.753 21.938 C 25.458 21.671 25.108 21.542 24.739 21.542 C 24.38 21.542 24.03 21.662 23.726 21.938 L 20.639 24.684 L 19.395 23.56 C 19.11 23.311 18.787 23.182 18.474 23.182 C 18.17 23.182 17.866 23.302 17.59 23.55 L 16.106 24.85 L 16.106 18.732 Z  M 19.69 22.205 C 20.593 22.205 21.358 21.441 21.358 20.538 C 21.358 19.626 20.593 18.861 19.69 18.861 C 18.787 18.861 18.023 19.626 18.023 20.538 C 18.023 21.441 18.787 22.205 19.69 22.205 Z " fill="rgb(255,255,255)"/></g></g></svg>